<svg xmlns="http://www.w3.org/2000/svg" xmlns:xlink="http://www.w3.org/1999/xlink" width="0" height="0" style="display:none;"><symbol viewBox="0 0 24 24" id="type=solid">
<path d="M20.3643 11.1211C20.8721 11.5898 20.8721 12.4101 20.3643 12.8789L14.1143 19.1289C13.7627 19.4804 13.2158 19.5976 12.7471 19.4023C12.2783 19.207 11.9658 18.7383 11.9658 18.2304V14.4804H4.81738C3.91895 14.4804 3.25488 13.8164 3.25488 12.9179V11.0429C3.25488 10.1836 3.91895 9.48044 4.81738 9.48044H12.0049V5.73044C12.0049 5.26169 12.2783 4.79294 12.7471 4.59763C13.2158 4.40232 13.7627 4.5195 14.1143 4.87107L20.3643 11.1211Z" fill="black" style="fill:black;fill:black;fill-opacity:1;"/>
</symbol><symbol viewBox="0 0 24 24" id="type=solid">
<path d="M3.61621 12.8789C3.1084 12.4101 3.1084 11.5898 3.61621 11.1211L9.86621 4.87107C10.2178 4.5195 10.7646 4.40232 11.2334 4.59763C11.7021 4.79294 12.0146 5.22263 12.0146 5.73044V9.48044H19.2021C20.0615 9.48044 20.7646 10.1836 20.7646 11.0429V12.9179C20.7646 13.8164 20.0615 14.4804 19.2021 14.4804H12.0146V18.2304C12.0146 18.7383 11.7021 19.207 11.2334 19.4023C10.7646 19.5976 10.2178 19.4804 9.86621 19.1289L3.61621 12.8789Z" fill="black" style="fill:black;fill:black;fill-opacity:1;"/>
</symbol><symbol viewBox="0 0 24 24" id="type=solid">
<path d="M11.1211 3.63574C11.5898 3.12793 12.4101 3.12793 12.8789 3.63574L19.1289 9.88574C19.4804 10.2373 19.5976 10.7842 19.4023 11.2529C19.207 11.7217 18.7773 12.0342 18.2695 12.0342H14.5195V19.1826C14.5195 20.0811 13.8164 20.7451 12.957 20.7451H11.082C10.1836 20.7451 9.5195 20.0811 9.5195 19.1826V11.9951H5.7695C5.26169 11.9951 4.79294 11.7217 4.59763 11.2529C4.40232 10.7842 4.5195 10.2373 4.87107 9.88574L11.1211 3.63574Z" fill="black" style="fill:black;fill:black;fill-opacity:1;"/>
</symbol><symbol viewBox="0 0 24 24" id="type=solid">
<path d="M12.8789 20.3838C12.4101 20.8916 11.5898 20.8916 11.1211 20.3838L4.87107 14.1338C4.5195 13.7822 4.40232 13.2354 4.59763 12.7666C4.79294 12.2979 5.26169 11.9854 5.7695 11.9854H9.5195V4.79785C9.5195 3.93848 10.1836 3.23535 11.082 3.23535H12.957C13.8164 3.23535 14.5195 3.93848 14.5195 4.79785V11.9854H18.2695C18.7383 11.9854 19.207 12.2979 19.4023 12.7666C19.5976 13.2354 19.4804 13.7822 19.1289 14.1338L12.8789 20.3838Z" fill="black" style="fill:black;fill:black;fill-opacity:1;"/>
</symbol><symbol viewBox="0 0 24 24" id="type=solid">
<path d="M2 11.9805C2 8.42578 3.875 5.14453 7 3.34766C10.0859 1.55078 13.875 1.55078 17 3.34766C20.0859 5.14453 22 8.42578 22 11.9805C22 15.5742 20.0859 18.8555 17 20.6523C13.875 22.4492 10.0859 22.4492 7 20.6523C3.875 18.8555 2 15.5742 2 11.9805ZM13.4844 7.29297C13.3281 7.09766 13.0938 6.98047 12.8594 6.98047C12.3906 6.98047 12 7.37109 12 7.87891V10.1055H8.25C7.54688 10.1055 7 10.6914 7 11.3555V12.6055C7 13.3086 7.54688 13.8555 8.25 13.8555H12V16.1211C12 16.5898 12.3906 16.9805 12.8594 16.9805C13.0938 16.9805 13.3281 16.9023 13.4844 16.707L17.3906 12.5273C17.5469 12.4102 17.625 12.2148 17.625 11.9805C17.625 11.7852 17.5469 11.5898 17.3906 11.4727L13.4844 7.29297Z" fill="black" style="fill:black;fill:black;fill-opacity:1;"/>
</symbol><symbol viewBox="0 0 24 24" id="type=solid">
<path d="M22 11.9805C22 15.5742 20.0859 18.8555 17 20.6523C13.875 22.4492 10.0859 22.4492 7 20.6523C3.875 18.8555 2 15.5742 2 11.9805C2 8.42578 3.875 5.14453 7 3.34766C10.0859 1.55078 13.875 1.55078 17 3.34766C20.0859 5.14453 22 8.42578 22 11.9805ZM10.4766 16.707C10.6328 16.9023 10.8672 16.9805 11.1016 16.9805C11.6094 16.9805 12 16.5898 12 16.1211V13.8555H15.75C16.4141 13.8555 17 13.3086 17 12.6055V11.3555C17 10.6914 16.4141 10.1055 15.75 10.1055H12V7.87891C12 7.37109 11.6094 6.98047 11.1016 6.98047C10.8672 6.98047 10.6328 7.09766 10.4766 7.29297L6.57031 11.4727C6.45312 11.5898 6.375 11.7852 6.375 11.9805C6.375 12.2148 6.45312 12.3711 6.57031 12.5273L10.4766 16.707Z" fill="black" style="fill:black;fill:black;fill-opacity:1;"/>
</symbol><symbol viewBox="0 0 24 24" id="type=solid">
<path d="M12.0195 22C8.42578 22 5.14453 20.125 3.34766 17C1.55078 13.9141 1.55078 10.125 3.34766 7C5.14453 3.91406 8.42578 2 12.0195 2C15.5742 2 18.8555 3.91406 20.6523 7C22.4492 10.125 22.4492 13.9141 20.6523 17C18.8555 20.125 15.5742 22 12.0195 22ZM7.29297 10.5156C7.09766 10.6719 7.01953 10.9062 7.01953 11.1406C7.01953 11.6094 7.41016 12 7.87891 12H10.1445V15.75C10.1445 16.4531 10.6914 17 11.3945 17H12.6445C13.3086 17 13.8945 16.4531 13.8945 15.75V12H16.1211C16.6289 12 17.0195 11.6094 17.0195 11.1406C17.0195 10.9062 16.9023 10.6719 16.707 10.5156L12.5273 6.60938C12.4102 6.45312 12.2148 6.375 12.0195 6.375C11.7852 6.375 11.6289 6.45312 11.4727 6.60938L7.29297 10.5156Z" fill="black" style="fill:black;fill:black;fill-opacity:1;"/>
</symbol><symbol viewBox="0 0 24 24" id="type=solid">
<path d="M12.0195 2C15.5742 2 18.8555 3.91406 20.6523 7C22.4492 10.125 22.4492 13.9141 20.6523 17C18.8555 20.125 15.5742 22 12.0195 22C8.42578 22 5.14453 20.125 3.34766 17C1.55078 13.9141 1.55078 10.125 3.34766 7C5.14453 3.91406 8.42578 2 12.0195 2ZM16.707 13.5234C16.9023 13.3672 17.0195 13.1328 17.0195 12.8984C17.0195 12.3906 16.6289 12 16.1211 12H13.8945V8.25C13.8945 7.58594 13.3086 7 12.6445 7H11.3945C10.6914 7 10.1445 7.58594 10.1445 8.25V12H7.87891C7.41016 12 7.01953 12.3906 7.01953 12.8984C7.01953 13.1328 7.09766 13.3672 7.29297 13.5234L11.4727 17.4297C11.5898 17.5469 11.7852 17.625 12.0195 17.625C12.2148 17.625 12.4102 17.5469 12.5273 17.4297L16.707 13.5234Z" fill="black" style="fill:black;fill:black;fill-opacity:1;"/>
</symbol><symbol viewBox="0 0 24 24" id="type=solid">
<path d="M12.0195 2C15.5742 2 18.8555 3.91406 20.6523 7C22.4492 10.125 22.4492 13.9141 20.6523 17C18.8555 20.125 15.5742 22 12.0195 22C8.42578 22 5.14453 20.125 3.34766 17C1.55078 13.9141 1.55078 10.125 3.34766 7C5.14453 3.91406 8.42578 2 12.0195 2ZM15.7695 14.2656V8.875C15.7695 8.5625 15.457 8.25 15.1445 8.25H9.75391C9.28516 8.25 8.89453 8.67969 8.89453 9.14844C8.89453 9.38281 8.97266 9.61719 9.12891 9.77344L10.457 11.0625L7.83984 13.6797C7.72266 13.7969 7.64453 13.9922 7.64453 14.1875C7.64453 14.4219 7.72266 14.5781 7.83984 14.7344L9.28516 16.1797C9.44141 16.2969 9.59766 16.4141 9.83203 16.4141C10.0273 16.4141 10.2227 16.3359 10.3398 16.1797L12.957 13.5625L14.2461 14.8906C14.4023 15.0469 14.6367 15.125 14.8711 15.125C15.3398 15.125 15.7695 14.7344 15.7695 14.2656Z" fill="black" style="fill:black;fill:black;fill-opacity:1;"/>
</symbol><symbol viewBox="0 0 24 24" id="type=solid">
<path d="M12.0195 22C8.42578 22 5.14453 20.125 3.34766 17C1.55078 13.9141 1.55078 10.125 3.34766 7C5.14453 3.91406 8.42578 2 12.0195 2C15.5742 2 18.8555 3.91406 20.6523 7C22.4492 10.125 22.4492 13.9141 20.6523 17C18.8555 20.125 15.5742 22 12.0195 22ZM8.26953 9.77344V15.125C8.26953 15.4766 8.54297 15.75 8.89453 15.75H14.2461C14.7148 15.75 15.1445 15.3594 15.1445 14.8906C15.1445 14.6562 15.0273 14.4219 14.8711 14.2656L13.582 12.9375L16.1602 10.3594C16.2773 10.2422 16.3945 10.0469 16.3945 9.8125C16.3945 9.61719 16.3164 9.42188 16.1602 9.30469L14.7148 7.85938C14.5977 7.70312 14.4023 7.625 14.207 7.625C13.9727 7.625 13.8164 7.70312 13.6602 7.85938L11.082 10.4375L9.75391 9.14844C9.59766 8.99219 9.36328 8.875 9.12891 8.875C8.66016 8.875 8.26953 9.30469 8.26953 9.77344Z" fill="black" style="fill:black;fill:black;fill-opacity:1;"/>
</symbol></svg>